<?xml version="1.0" standalone="no"?>
<!DOCTYPE svg PUBLIC "-//W3C//DTD SVG 20010904//EN"
 "http://www.w3.org/TR/2001/REC-SVG-20010904/DTD/svg10.dtd">
<svg version="1.0" xmlns="http://www.w3.org/2000/svg"
 width="754.000000pt" height="772.000000pt" viewBox="0 0 754.000000 772.000000"
 preserveAspectRatio="xMidYMid meet">

<g transform="translate(0.000000,772.000000) scale(0.100000,-0.100000)"
fill="#000000" stroke="none">
<path d="M1241 6647 c-8 -8 -11 -756 -11 -2844 l0 -2833 688 0 688 0 0 133 c0
72 3 272 7 442 4 171 10 429 13 575 3 146 8 314 10 375 l6 110 106 114 c106
113 240 260 475 519 66 72 126 132 133 132 6 0 34 -37 60 -82 26 -46 154 -261
284 -478 252 -422 256 -430 520 -880 95 -162 197 -333 225 -380 75 -122 277
-466 311 -527 l29 -53 840 0 840 1 -25 20 c-14 12 -32 26 -40 33 -9 6 -28 36
-43 66 -14 30 -44 77 -66 103 -22 26 -43 57 -46 67 -4 11 -10 20 -14 20 -4 0
-16 17 -27 37 -32 63 -126 214 -171 277 -24 32 -43 62 -43 66 0 5 -17 35 -38
67 -52 78 -109 164 -154 232 -21 31 -49 77 -62 102 -14 26 -58 95 -99 155 -40
60 -86 132 -102 159 -16 28 -64 103 -107 167 -43 64 -78 120 -78 123 0 4 -24
44 -53 88 -30 45 -60 93 -67 107 -7 14 -22 37 -34 52 -12 15 -48 70 -81 123
-33 53 -79 126 -102 162 -24 36 -43 69 -43 73 0 5 -4 10 -8 12 -10 4 -92 130
-162 248 -11 19 -31 51 -43 70 -12 19 -31 50 -42 68 -11 19 -46 74 -77 122
-32 49 -58 92 -58 95 0 8 -83 145 -131 217 -22 31 -39 62 -39 68 0 6 -25 47
-55 92 -56 81 -66 108 -42 108 7 0 126 125 263 278 137 152 317 351 399 442
83 91 191 210 240 265 50 56 248 273 440 484 193 210 382 418 420 461 39 43
128 142 198 219 70 78 124 141 119 141 -5 0 -27 -6 -48 -13 -31 -11 -197 -13
-854 -11 l-815 3 -50 -61 c-49 -59 -115 -134 -165 -187 -14 -14 -46 -51 -72
-81 -26 -30 -57 -67 -70 -82 -13 -14 -34 -41 -48 -58 -14 -18 -36 -45 -50 -60
-14 -16 -32 -37 -40 -48 -8 -11 -51 -59 -95 -107 -44 -48 -84 -94 -88 -102 -9
-14 -53 -66 -94 -110 -13 -13 -23 -26 -23 -29 0 -3 -28 -35 -62 -71 -35 -37
-78 -82 -96 -101 -18 -19 -42 -46 -53 -61 -45 -59 -98 -120 -170 -196 -42 -44
-102 -111 -134 -150 -32 -38 -82 -92 -110 -120 -29 -27 -76 -79 -105 -115 -30
-36 -59 -68 -64 -72 -6 -4 -8 -8 -4 -8 10 0 -13 -28 -104 -123 -43 -45 -78
-84 -78 -87 0 -3 -27 -34 -60 -68 -34 -34 -58 -67 -55 -72 4 -6 1 -9 -7 -8 -7
2 -12 -3 -10 -9 1 -7 -3 -13 -9 -13 -5 0 -7 -5 -3 -12 4 -6 3 -8 -3 -5 -13 8
-46 -27 -36 -37 5 -4 3 -6 -3 -4 -11 3 -58 -47 -87 -94 -10 -16 -21 -28 -26
-28 -10 0 -14 475 -13 1547 1 563 -2 824 -9 829 -6 3 -296 6 -644 5 -376 -1
-643 2 -658 8 -16 7 -28 6 -36 -2z"/>
</g>
</svg>
